<svg width="500" height="500" version="1.1" viewBox="0 0 132.29 132.29" xmlns="http://www.w3.org/2000/svg">
 <g transform="translate(-29.002 -294.13)">
  <path d="m151.24 328.78c0 26.538-21.364 47.903-47.902 47.903l30.17 5.9868 17.733-5.9868 5.2385-23.434z" fill="#79d2ff" stroke-width=".53282"/>
  <path d="m39.127 352.09c0-26.538 21.364-47.903 47.902-47.903l-20.441-6.361-27.462 6.361-7.6706 24.366z" fill="#84edf4" stroke-width=".53282"/>
  <path d="m56.299 294.13c-15.122 0-27.297 12.174-27.297 27.297v77.699c0 15.122 12.174 27.297 27.297 27.297h30.661c4.5367 0 8.1886-3.6525 8.1886-8.1892v-23.31c0-4.5367 3.6525-8.1886 8.1892-8.1886h30.66c15.122 0 27.297-12.174 27.297-27.297v-38.011c0-15.122-12.174-27.297-27.297-27.297zm0 10.054h77.699c9.5576 0 17.242 7.6848 17.242 17.242v35.441c0 10.976-8.8364 19.813-19.813 19.813h-28.09c-10.101 0-18.243 8.1411-18.243 18.243v13.256c0 4.5367-3.652 8.1892-8.1886 8.1892h-20.606c-9.5576 0-17.242-7.6848-17.242-17.242v-77.699c0-9.5576 7.6848-17.242 17.242-17.242z" fill="#fff" stroke-width=".22038"/>
 </g>
</svg>
